<?xml version="1.0" encoding="UTF-8" standalone="no"?>
<!DOCTYPE svg PUBLIC "-//W3C//DTD SVG 1.1//EN"
 "http://www.w3.org/Graphics/SVG/1.1/DTD/svg11.dtd">
<!-- Generated by graphviz version 2.43.0 (0)
 -->
<!-- Title: %3 Pages: 1 -->
<svg width="211pt" height="265pt"
 viewBox="0.00 0.00 211.00 265.00" xmlns="http://www.w3.org/2000/svg" xmlns:xlink="http://www.w3.org/1999/xlink">
<g id="graph0" class="graph" transform="scale(1 1) rotate(0) translate(4 261)">
<title>%3</title>
<polygon fill="white" stroke="transparent" points="-4,4 -4,-261 207,-261 207,4 -4,4"/>
<g id="clust1" class="cluster">
<title>cluster_3</title>
<polygon fill="none" stroke="black" points="8,-91 8,-166 78,-166 78,-91 8,-91"/>
<text text-anchor="middle" x="43" y="-150.8" font-family="Times,serif" font-size="14.00">e3</text>
</g>
<g id="clust2" class="cluster">
<title>cluster_0</title>
<polygon fill="none" stroke="black" points="47,-8 47,-83 117,-83 117,-8 47,-8"/>
<text text-anchor="middle" x="82" y="-67.8" font-family="Times,serif" font-size="14.00">e0</text>
</g>
<g id="clust3" class="cluster">
<title>cluster_4</title>
<polygon fill="none" stroke="black" points="47,-174 47,-249 117,-249 117,-174 47,-174"/>
<text text-anchor="middle" x="82" y="-233.8" font-family="Times,serif" font-size="14.00">e4</text>
</g>
<g id="clust4" class="cluster">
<title>cluster_1</title>
<polygon fill="none" stroke="black" points="125,-8 125,-83 195,-83 195,-8 125,-8"/>
<text text-anchor="middle" x="160" y="-67.8" font-family="Times,serif" font-size="14.00">e1</text>
</g>
<g id="clust5" class="cluster">
<title>cluster_2</title>
<polygon fill="none" stroke="black" points="86,-91 86,-166 156,-166 156,-91 86,-91"/>
<text text-anchor="middle" x="121" y="-150.8" font-family="Times,serif" font-size="14.00">e2</text>
</g>
<!-- 2 -->
<g id="node1" class="node">
<title>2</title>
<ellipse fill="none" stroke="black" cx="43" cy="-117" rx="27" ry="18"/>
<text text-anchor="middle" x="43" y="-113.3" font-family="Times,serif" font-size="14.00">2</text>
</g>
<!-- a -->
<g id="node2" class="node">
<title>a</title>
<ellipse fill="none" stroke="black" cx="82" cy="-34" rx="27" ry="18"/>
<text text-anchor="middle" x="82" y="-30.3" font-family="Times,serif" font-size="14.00">a</text>
</g>
<!-- (/ (&lt;&lt; a 1) 2) -->
<g id="node3" class="node">
<title>(/ (&lt;&lt; a 1) 2)</title>
<ellipse fill="none" stroke="black" cx="82" cy="-200" rx="27" ry="18"/>
<text text-anchor="middle" x="82" y="-196.3" font-family="Times,serif" font-size="14.00">/</text>
</g>
<!-- (/ (&lt;&lt; a 1) 2)&#45;&gt;2 -->
<g id="edge2" class="edge">
<title>(/ (&lt;&lt; a 1) 2)&#45;&gt;2</title>
<path fill="none" stroke="black" d="M74.11,-182.61C68.72,-171.41 61.46,-156.34 55.32,-143.58"/>
<polygon fill="black" stroke="black" points="58.37,-141.86 50.88,-134.37 52.07,-144.9 58.37,-141.86"/>
</g>
<!-- (&lt;&lt; a 1) -->
<g id="node5" class="node">
<title>(&lt;&lt; a 1)</title>
<ellipse fill="none" stroke="black" cx="121" cy="-117" rx="27" ry="18"/>
<text text-anchor="middle" x="121" y="-113.3" font-family="Times,serif" font-size="14.00">&lt;&lt;</text>
</g>
<!-- (/ (&lt;&lt; a 1) 2)&#45;&gt;(&lt;&lt; a 1) -->
<g id="edge1" class="edge">
<title>(/ (&lt;&lt; a 1) 2)&#45;&gt;(&lt;&lt; a 1)</title>
<path fill="none" stroke="black" d="M89.89,-182.61C95.28,-171.41 102.54,-156.34 108.68,-143.58"/>
<polygon fill="black" stroke="black" points="111.93,-144.9 113.12,-134.37 105.63,-141.86 111.93,-144.9"/>
</g>
<!-- 1 -->
<g id="node4" class="node">
<title>1</title>
<ellipse fill="none" stroke="black" cx="160" cy="-34" rx="27" ry="18"/>
<text text-anchor="middle" x="160" y="-30.3" font-family="Times,serif" font-size="14.00">1</text>
</g>
<!-- (&lt;&lt; a 1)&#45;&gt;a -->
<g id="edge3" class="edge">
<title>(&lt;&lt; a 1)&#45;&gt;a</title>
<path fill="none" stroke="black" d="M113.11,-99.61C107.72,-88.41 100.46,-73.34 94.32,-60.58"/>
<polygon fill="black" stroke="black" points="97.37,-58.86 89.88,-51.37 91.07,-61.9 97.37,-58.86"/>
</g>
<!-- (&lt;&lt; a 1)&#45;&gt;1 -->
<g id="edge4" class="edge">
<title>(&lt;&lt; a 1)&#45;&gt;1</title>
<path fill="none" stroke="black" d="M128.89,-99.61C134.28,-88.41 141.54,-73.34 147.68,-60.58"/>
<polygon fill="black" stroke="black" points="150.93,-61.9 152.12,-51.37 144.63,-58.86 150.93,-61.9"/>
</g>
</g>
</svg>
